# xmcd
#
# Track frame offsets:
#	150
#	18763
#	32120
#	58768
#	80063
#	103338
#	126655
#	161163
#	190130
#	212768
#
# Disc length: 3081 seconds
#
# Revision: 1
# Processed by: cddbd v1.5.2PL0 Copyright (c) Steve Scherf et al.
# Submitted via: EZCDAudioConverter 8.0.2.1
#
DISCID=910c070a
DTITLE=Phương Dung - Còn Mãi Những Khúc TÌnh Ca
DYEAR=1996
DGENRE=country
TTITLE0=Còn Mãi Những Khúc TÌnh Ca
TTITLE1=Hình ảnh người em không đợi
TTITLE2=Còn thương góc bếp chái hè
TTITLE3=Đổi thay
TTITLE4=Qua nhịp cầu tre
TTITLE5=Tình trong như đã
TTITLE6=Không bao giờ quên anh
TTITLE7=Dấu chân kỷ niệm
TTITLE8=Một mình
TTITLE9=Thư tình cuối mùa thu
EXTD=
EXTT0=
EXTT1=
EXTT2=
EXTT3=
EXTT4=
EXTT5=
EXTT6=
EXTT7=
EXTT8=
EXTT9=
PLAYORDER=
